<?xml version="1.0" encoding="iso-8859-1"?>
<!-- Generator: Adobe Illustrator 19.0.0, SVG Export Plug-In . SVG Version: 6.00 Build 0)  -->
<svg version="1.1" id="Layer_1" xmlns="http://www.w3.org/2000/svg" xmlns:xlink="http://www.w3.org/1999/xlink" x="0px" y="0px"
	 viewBox="0 0 504.303 504.303" style="enable-background:new 0 0 504.303 504.303;" xml:space="preserve">
<g>
	<g>
		<path d="M365.854,326.613l-2.491,4.4c-9.042,15.976-20.463,28.403-33.011,35.935c-13.841,8.279-29.47,12.47-46.445,12.47
			c-16.957,0-32.568-4.191-46.401-12.47c-13.928-8.331-25.036-19.725-32.829-33.514c-5.623-11.16-10.995-21.816-12.965-32.855
			h310.871l0.703-7.906c0.477-5.398,0.338-11.247,0.191-17.443c-0.078-3.046-0.156-6.179-0.156-9.364
			c0-40.162-1.579-79.126-20.133-114.107c20.68-57.474,17.174-100.951-10.683-129.484c-14.874-14.05-38.678-19.82-72.643-17.582
			c-31.518,2.065-66.699,11.55-104.596,28.203c-4.99-0.521-9.997-0.79-14.909-0.79c-52.033,0-90.529,17.208-143.49,49.039
			c-40.379,25.166-81.668,58.264-110.21,129.423l-13.694,34.13l27.509-24.411c25.418-22.563,54.22-44.431,82.128-62.681
			c-32.968,34.009-45.134,53.968-58.949,76.618l-2.838,4.634c-21.625,35.267-37.333,68.209-46.661,97.896
			C4.756,366.566,0,394.084,0,418.573c0,26.112,6.404,45.325,18.831,56.91c16.427,16.393,37.784,24.593,63.887,24.593
			c26.962,0,58.984-8.739,95.892-26.199c31.831,14.883,66.039,22.415,101.749,22.415c49.785,0,95.327-14.735,135.35-43.798
			c39.242-28.49,67.662-66.951,84.48-114.306l4.113-11.576H365.854z M359.389,49.091c37.81-16.028,52.667-17.564,72.253-7.472
			c12.245,6.3,21.79,16.263,26.858,28.03c5.337,12.392,3.003,22.702-7.793,51.721l-5.172,13.893l-9.581-11.316
			c-29.948-35.337-35.502-38.747-77-59.08l-17.07-8.357L359.389,49.091z M151.109,447.332
			c-29.878,13.538-52.172,21.652-70.257,21.652c-13.529,0-24.689-4.539-34.911-14.735c-28.281-28.238-13.182-63.731,15.03-118.827
			l9.051-17.677l6.83,18.658c17.538,47.998,30.868,68.539,75.203,95.614l13.98,8.548L151.109,447.332z M173.065,239.833l0.512-9.164
			c1.362-24.55,13.39-47.668,35.727-68.712c18.744-17.668,41.828-26.26,70.561-26.26c28.715,0,51.79,8.591,70.552,26.26
			c19.317,18.215,29.87,41.333,31.406,68.712l0.503,9.164H173.065z"/>
	</g>
</g>
<g>
</g>
<g>
</g>
<g>
</g>
<g>
</g>
<g>
</g>
<g>
</g>
<g>
</g>
<g>
</g>
<g>
</g>
<g>
</g>
<g>
</g>
<g>
</g>
<g>
</g>
<g>
</g>
<g>
</g>
</svg>
