<?xml version="1.0" encoding="iso-8859-1"?>
<!-- Generator: Adobe Illustrator 19.0.0, SVG Export Plug-In . SVG Version: 6.00 Build 0)  -->
<svg version="1.1" id="Layer_1" xmlns="http://www.w3.org/2000/svg" xmlns:xlink="http://www.w3.org/1999/xlink" x="0px" y="0px"
	 viewBox="0 0 511.957 511.957" style="enable-background:new 0 0 511.957 511.957;" xml:space="preserve">
<g>
	<g>
		<path d="M255.987,0C114.846,0,0.013,114.833,0.013,255.983c0,101.581,60.143,193.596,153.216,234.428l12.51,5.487l-0.555-13.636
			c-0.845-21.077,0.529-39.415,4.079-54.494c4.77-20.13,31.838-134.878,31.838-134.878l0.691-3.012l-1.348-2.748
			c-0.077-0.145-7.031-14.515-7.031-35.319c0-31.13,17.229-55.509,39.219-55.509c23.04,0,24.832,21.888,24.832,28.595
			c0,13.099-5.649,31.386-11.622,50.739c-3.558,11.511-7.236,23.415-9.993,35.098c-3.456,14.609-0.495,28.809,8.337,39.979
			c9.131,11.546,23.339,18.159,38.98,18.159c49.596,0,86.989-60.22,86.989-140.083c0-62.763-43.759-103.322-111.479-103.322
			c-74.3,0-130.33,54.596-130.33,127.01c0,21.777,5.99,39.45,18.33,54.067c1.988,2.33,2.33,3.072,2.364,3.157
			c0.017,0.102,0.034,0.717-0.597,3.021l-0.614,2.466c-1.306,5.231-3.396,13.619-4.369,17.289c-0.085,0.316-0.171,0.546-0.196,0.683
			c-0.179-0.034-0.418-0.102-0.717-0.23c-28.817-11.733-45.346-43.307-45.346-86.613c0-100.736,98.423-146.039,168.32-146.039
			c92.723,0,148.13,67.729,148.13,133.222c0,94.822-51.405,161.05-125.005,161.05c-24.499,0-46.123-13.346-52.881-26.24
			l-10.368-19.797l-5.47,21.666c-0.136,0.572-14.396,57.054-17.348,67.814c-4.122,14.942-12.39,32.486-23.893,50.731l-6.016,9.54
			l10.812,3.2c23.526,6.955,47.923,10.496,72.508,10.496c141.133,0,255.957-114.833,255.957-255.974
			C511.945,114.833,397.12,0,255.987,0z"/>
	</g>
</g>
<g>
</g>
<g>
</g>
<g>
</g>
<g>
</g>
<g>
</g>
<g>
</g>
<g>
</g>
<g>
</g>
<g>
</g>
<g>
</g>
<g>
</g>
<g>
</g>
<g>
</g>
<g>
</g>
<g>
</g>
</svg>
