<?xml version="1.0" encoding="iso-8859-1"?>
<!-- Generator: Adobe Illustrator 19.0.0, SVG Export Plug-In . SVG Version: 6.00 Build 0)  -->
<svg version="1.1" id="Layer_1" xmlns="http://www.w3.org/2000/svg" xmlns:xlink="http://www.w3.org/1999/xlink" x="0px" y="0px"
	 viewBox="0 0 512 512" style="enable-background:new 0 0 512 512;" xml:space="preserve">
<g>
	<g>
		<path d="M392.051,125.438c-2.467-3.767-7.52-4.822-11.287-2.355c-3.768,2.467-4.822,7.519-2.355,11.287
			c37.431,57.167,56.41,122.959,56.41,195.549c0,103.802-68.473,165.775-183.168,165.775c-94.573,0-174.471-75.916-174.471-165.775
			c0-92.128,67.609-150.463,97.75-174.881c2.98,25.057,12.591,52.764,28.684,82.623c2.807,5.208,10.34,5.696,13.797,0.89
			c26.526-36.901,43.957-71.479,53.284-105.708c9.469-34.754,10.544-69.928,3.241-104.856
			c20.027,14.502,50.351,37.979,79.183,72.366c2.892,3.45,8.035,3.901,11.485,1.01c3.451-2.893,3.903-8.035,1.01-11.485
			c-34.797-41.502-71.371-67.504-91.021-81.472c-2.472-1.758-4.95-3.509-7.393-5.309c-2.126-1.566-4.057-3.094-6.839-3.098
			c-5.42-0.007-9.408,5.418-7.792,10.585c21.382,68.426,8.464,134.631-40.708,207.423c-14.183-29.182-21.627-56.428-21.627-79.409
			c0-3.236-1.914-6.166-4.877-7.466c-2.965-1.3-6.415-0.724-8.796,1.466c-1.66,1.527-4.481,3.797-8.052,6.67
			c-29.437,23.685-107.634,86.6-107.634,190.65c0,48.239,20.553,94.03,57.873,128.939C154.853,492.631,203.296,512,251.652,512
			c63.411,0,115.397-18.44,150.338-53.326c32.145-32.094,49.136-76.616,49.136-128.754
			C451.125,254.102,431.25,185.305,392.051,125.438z"/>
	</g>
</g>
<g>
	<g>
		<path d="M390.498,196.323c-1.716-4.096-6.572-6.086-10.669-4.371c-4.098,1.715-6.086,6.572-4.371,10.669
			c16.307,38.936,24.576,81.765,24.576,127.298c0,46.491-16.831,82.747-48.674,104.848c-3.364,2.335-4.478,6.968-2.525,10.572
			c2.282,4.213,7.881,5.56,11.823,2.823c36.427-25.283,55.682-66.171,55.682-118.243
			C416.34,282.212,407.645,237.265,390.498,196.323z"/>
	</g>
</g>
<g>
	<g>
		<path d="M328.942,456.101c-1.428-4.207-6.134-6.527-10.341-5.097c-19.355,6.572-41.881,9.905-66.949,9.905
			c-4.443,0-8.153,3.71-8.153,8.153c0,4.443,3.71,8.153,8.153,8.153c26.857,0,51.146-3.624,72.193-10.772
			C328.052,465.015,330.371,460.308,328.942,456.101z"/>
	</g>
</g>
<g>
</g>
<g>
</g>
<g>
</g>
<g>
</g>
<g>
</g>
<g>
</g>
<g>
</g>
<g>
</g>
<g>
</g>
<g>
</g>
<g>
</g>
<g>
</g>
<g>
</g>
<g>
</g>
<g>
</g>
</svg>
